<svg xmlns="http://www.w3.org/2000/svg" xmlns:xlink="http://www.w3.org/1999/xlink" width="500" height="967" viewBox="0 0 500 967"><svg width="500" height="500" viewBox="0 0 500 500" id="android-logo" y="0"><path fill="#9FBF3B" d="M301.314 83.298l20.159-29.272c1.197-1.74.899-4.024-.666-5.104-1.563-1.074-3.805-.543-4.993 1.199L294.863 80.53c-13.807-5.439-29.139-8.47-45.299-8.47s-31.496 3.028-45.302 8.47l-20.948-30.41c-1.201-1.74-3.439-2.273-5.003-1.199-1.564 1.077-1.861 3.362-.664 5.104l20.166 29.272c-32.063 14.916-54.548 43.26-57.413 76.34h218.316c-2.855-33.08-25.341-61.423-57.402-76.339"></path><path fill="#FFF" d="M203.956 129.438c-6.673 0-12.08-5.407-12.08-12.079 0-6.671 5.404-12.08 12.08-12.08 6.668 0 12.073 5.407 12.073 12.08.001 6.671-5.405 12.079-12.073 12.079M295.161 129.438c-6.668 0-12.074-5.407-12.074-12.079 0-6.673 5.406-12.08 12.074-12.08 6.675 0 12.079 5.409 12.079 12.08s-5.406 12.079-12.079 12.079"></path><path fill="#9FBF3B" d="M126.383 297.598c0 13.45-10.904 24.354-24.355 24.354-13.45 0-24.354-10.904-24.354-24.354V199.09c0-13.45 10.904-24.354 24.354-24.354 13.451 0 24.355 10.904 24.355 24.354v98.508zM140.396 175.489v177.915c0 10.566 8.566 19.133 19.135 19.133h22.633v54.744c0 13.451 10.903 24.354 24.354 24.354 13.451 0 24.355-10.903 24.355-24.354v-54.744h37.371v54.744c0 13.451 10.902 24.354 24.354 24.354s24.354-10.903 24.354-24.354v-54.744h22.633c10.569 0 19.137-8.562 19.137-19.133V175.489H140.396zM372.734 297.598c0 13.45 10.903 24.354 24.354 24.354 13.45 0 24.354-10.904 24.354-24.354V199.09c0-13.45-10.904-24.354-24.354-24.354-13.451 0-24.354 10.904-24.354 24.354v98.508z"></path></svg><svg width="170" viewBox="0 0 170 170" height="170" id="apple-logo" y="500"><style>.icon{fill:#fff}</style><path class="icon" d="M150.37 130.25c-2.45 5.66-5.35 10.87-8.71 15.66-4.58 6.53-8.33 11.05-11.22 13.56-4.48 4.12-9.28 6.23-14.42 6.35-3.69 0-8.14-1.05-13.32-3.18-5.197-2.12-9.973-3.17-14.34-3.17-4.58 0-9.492 1.05-14.746 3.17-5.262 2.13-9.501 3.24-12.742 3.35-4.929.21-9.842-1.96-14.746-6.52-3.13-2.73-7.045-7.41-11.735-14.04-5.032-7.08-9.169-15.29-12.41-24.65-3.471-10.11-5.211-19.9-5.211-29.378 0-10.857 2.346-20.221 7.045-28.068 3.693-6.303 8.606-11.275 14.755-14.925s12.793-5.51 19.948-5.629c3.915 0 9.049 1.211 15.429 3.591 6.362 2.388 10.447 3.599 12.238 3.599 1.339 0 5.877-1.416 13.57-4.239 7.275-2.618 13.415-3.702 18.445-3.275 13.63 1.1 23.87 6.473 30.68 16.153-12.19 7.386-18.22 17.731-18.1 31.002.11 10.337 3.86 18.939 11.23 25.769 3.34 3.17 7.07 5.62 11.22 7.36-.9 2.61-1.85 5.11-2.86 7.51zM119.11 7.24c0 8.102-2.96 15.667-8.86 22.669-7.12 8.324-15.732 13.134-25.071 12.375a25.222 25.222 0 0 1-.188-3.07c0-7.778 3.386-16.102 9.399-22.908 3.002-3.446 6.82-6.311 11.45-8.597 4.62-2.252 8.99-3.497 13.1-3.71.12 1.083.17 2.166.17 3.24z"></path></svg><svg width="210" height="297" viewBox="0 0 210 297" id="microsoft-logo" y="670"><g stroke-width=".265"><path d="M31.061 30.967H3.315V3.22h27.746z" fill="#f35325"></path><path d="M61.697 30.967H33.95V3.22h27.746z" fill="#81bc06"></path><path d="M31.06 61.613H3.316V33.867h27.746z" fill="#05a6f0"></path><path d="M61.697 61.613H33.95V33.867h27.746z" fill="#ffba08"></path></g></svg></svg>