<?xml version="1.0" encoding="utf-8"?><svg xmlns="http://www.w3.org/2000/svg" xmlns:xlink="http://www.w3.org/1999/xlink"><symbol viewBox="899.295 367.419 116.845 133.709" id="icon-timer"><path fill="#DDD" d="M901.352 428.26c-.133.484-2.057 9.89-2.057 15.134 0 24.958 16.058 46.17 38.513 54.223 6.224 2.222 12.91 3.51 19.908 3.51a58.13 58.13 0 0 0 8.57-.632c.297-.037.58-.124.88-.174 8.222-1.32 15.892-4.32 22.584-8.67a58.056 58.056 0 0 0 21.205-24.56c3.302-7.24 5.185-15.23 5.185-23.69 0-5.1-.677-10.05-1.94-14.76a57.174 57.174 0 0 0-11.085-21.57l3.36-3.32a5.976 5.976 0 0 0 0-8.52c-1.31-1.29-3.05-1.8-4.756-1.67-1.41.1-2.81.62-3.87 1.68l-3.36 3.32c-3.56-2.85-7.48-5.25-11.66-7.21a58.98 58.98 0 0 0-11.9-4.13c-.04 0-.08 0-.12-.01-1.8-.41-3.61-.77-5.48-1.01v-3.66h2.69c4.21 0 7.62-3.37 7.62-7.54 0-4.15-3.42-7.53-7.63-7.53h-21.1c-.68 0-1.32.12-1.95.27l-.01.02c-3.27.86-5.67 3.77-5.67 7.25 0 4.17 3.41 7.55 7.62 7.55h3.16v3.66c-19.64 2.53-36.16 14.72-44.64 31.56-1.7 3.36-3.1 6.88-4.1 10.56m86.89 45.3c-5.57 5.5-12.39 9.25-19.82 11.14-2.55.63-5.2.98-7.87 1.15-.38.03-.73.09-1.11.1-.58.03-1.14.12-1.72.12-1.59 0-3.16-.1-4.72-.265-9.75-1.05-18.78-5.28-25.81-12.23-8.16-8.06-12.65-18.776-12.65-30.167 0-.906.08-1.786.13-2.676.65-10.39 5.01-20.08 12.52-27.495.93-.92 1.91-1.78 2.9-2.61l.01-.006c7.74-6.384 17.4-9.88 27.61-9.88 1.87 0 3.7.128 5.51.36a43.475 43.475 0 0 1 15.97 5.33c.05.03.11.07.16.11 3.19 1.84 6.19 4.05 8.88 6.696.63.63 1.2 1.29 1.78 1.95.02.02.04.05.06.07 1.19 1.34 2.25 2.77 3.25 4.22.64.944 1.28 1.894 1.84 2.88 3.46 5.99 5.43 12.73 5.64 19.79.01.42.06.83.06 1.26 0 11.39-4.49 22.11-12.64 30.17z"/><path fill="#D22856" d="M957.784 400.795c23.766 0 43.1 19.123 43.1 42.63s-19.334 42.63-43.1 42.63-43.102-19.125-43.102-42.63c0-23.506 19.335-42.63 43.102-42.63m0-4.256c-26.18 0-47.402 20.99-47.402 46.88 0 25.89 21.222 46.88 47.402 46.88s47.4-20.99 47.4-46.89c0-25.9-21.222-46.89-47.4-46.89z"/><path d="M956.99 459.895h-23.696v-4.934l8.51-8.51c2.52-2.55 4.165-4.32 4.937-5.31.78-.98 1.33-1.9 1.67-2.74.34-.84.51-1.71.51-2.61 0-1.34-.37-2.35-1.12-3-.75-.65-1.75-.98-3-.98-1.31 0-2.59.3-3.82.9-1.23.6-2.52 1.45-3.87 2.55l-3.89-4.57c1.67-1.4 3.06-2.4 4.15-2.98 1.1-.58 2.3-1.03 3.6-1.34 1.3-.31 2.75-.47 4.36-.47 2.12 0 3.99.39 5.61 1.15 1.63.77 2.89 1.84 3.78 3.21s1.35 2.96 1.35 4.73c0 1.55-.27 3-.82 4.35-.55 1.35-1.4 2.74-2.55 4.17s-3.18 3.45-6.08 6.09l-4.35 4.06v.32H957v5.97zm27.868-6.955h-4.08v6.954h-7.003v-6.953h-14.468v-4.93l14.862-21.66h6.6v21.09h4.08v5.51zm-11.083-5.506v-5.69c0-.95.038-2.327.116-4.132.08-1.806.14-2.854.19-3.145h-.18a25.575 25.575 0 0 1-2.06 3.672l-6.21 9.29h8.16z" fill="#D22856"/></symbol><symbol viewBox="0 0 42.084 47.041" id="logo-android"><path fill="#A4C639" d="M34.144 14.009H7.945c-.009.11-.018.22-.018.333v18.755c0 1.926 1.457 3.49 3.316 3.627v7.43a2.884 2.884 0 1 0 5.77 0v-7.42h8.058v7.42a2.884 2.884 0 0 0 2.885 2.885 2.884 2.884 0 0 0 2.886-2.885V36.72c1.858-.137 3.315-1.701 3.315-3.627V14.342c0-.113-.004-.223-.013-.333zm-31.258 1.67a2.886 2.886 0 0 1 2.886 2.885v12.378a2.885 2.885 0 1 1-5.772 0V18.564a2.885 2.885 0 0 1 2.886-2.885zm36.312 0a2.885 2.885 0 0 1 2.886 2.885v12.378a2.885 2.885 0 0 1-2.886 2.886 2.884 2.884 0 0 1-2.885-2.886V18.564a2.884 2.884 0 0 1 2.885-2.885zM8.03 11.967h26.026c-.039-2.783-1.234-5.322-3.187-7.275L33.315.457a.304.304 0 1 0-.527-.304L30.416 4.26c-2.052-1.853-6.249-3.4-9.374-3.4-3.016 0-7.322 1.547-9.374 3.4L9.296.152a.304.304 0 0 0-.526.304l2.445 4.235c-1.95 1.954-3.147 4.493-3.185 7.276zm17.293-5.163c-.002-.805.664-1.46 1.488-1.462.826-.002 1.494.648 1.498 1.454v.008c.002.805-.664 1.46-1.49 1.462-.823.002-1.493-.649-1.496-1.454v-.008zm-11.143 0c-.001-.805.665-1.46 1.489-1.462.824-.002 1.494.648 1.497 1.454v.008c.002.805-.664 1.46-1.488 1.462-.825.002-1.495-.649-1.498-1.454v-.008z"/></symbol><symbol id="logo-apple" viewBox="0 0 46.21 56.753"><style>.icon{fill:#fff}</style><path fill="#FFF" d="M38.593 30.15c.081 8.59 7.535 11.447 7.617 11.483-.062.202-1.19 4.073-3.927 8.072-2.365 3.457-4.82 6.901-8.688 6.973-3.799.07-5.021-2.253-9.365-2.253s-5.702 2.182-9.298 2.32c-3.733.142-6.576-3.739-8.961-7.184-4.875-7.046-8.598-19.91-3.597-28.593 2.484-4.313 6.925-7.043 11.743-7.114 3.666-.069 7.126 2.466 9.366 2.466 2.241 0 6.444-3.049 10.865-2.601 1.85.077 7.044.747 10.38 5.629-.269.171-6.197 3.623-6.135 10.802m-7.14-21.088c1.982-2.4 3.316-5.739 2.952-9.062-2.857.115-6.312 1.904-8.36 4.302-1.837 2.123-3.445 5.521-3.011 8.778 3.184.246 6.436-1.619 8.419-4.018"/></symbol><symbol viewBox="0 0 43.922 41.992" id="logo-microsoft"><path fill="#F05423" d="M20.874 19.953H0V0h20.874v19.953z"/><path fill="#84C441" d="M43.922 19.953H23.049V0h20.873v19.953z"/><path fill="#2DABE2" d="M20.873 41.992H0V22.04h20.873v19.952z"/><path fill="#F9BC15" d="M43.922 41.992H23.049V22.04h20.873v19.952z"/></symbol></svg>